<?xml version="1.0" encoding="UTF-8"?>
<svg id="Layer_1" data-name="Layer 1" xmlns="http://www.w3.org/2000/svg" xmlns:xlink="http://www.w3.org/1999/xlink" viewBox="0 0 960 960">
  <defs>
    <style>
      .cls-1 {
        fill: url(#linear-gradient-6);
      }

      .cls-1, .cls-2, .cls-3, .cls-4, .cls-5, .cls-6, .cls-7, .cls-8, .cls-9, .cls-10, .cls-11, .cls-12, .cls-13 {
        stroke-width: 0px;
      }

      .cls-2, .cls-3 {
        fill: #272525;
      }

      .cls-3, .cls-7 {
        fill-rule: evenodd;
      }

      .cls-4 {
        fill: url(#linear-gradient-5);
      }

      .cls-5 {
        fill: none;
      }

      .cls-6 {
        fill: #fff;
      }

      .cls-7 {
        fill: url(#linear-gradient);
      }

      .cls-8 {
        fill: url(#linear-gradient-2);
      }

      .cls-9 {
        fill: url(#linear-gradient-7);
      }

      .cls-10 {
        fill: url(#linear-gradient-3);
      }

      .cls-11 {
        fill: #b4221a;
        isolation: isolate;
        opacity: .63;
      }

      .cls-12 {
        fill: url(#linear-gradient-4);
      }

      .cls-13 {
        fill: #d5001a;
      }
    </style>
    <linearGradient id="linear-gradient" x1="1338.25" y1="663.59" x2="1338.25" y2="-983.03" gradientTransform="translate(-135.05 338) scale(.46 -.46)" gradientUnits="userSpaceOnUse">
      <stop offset=".14" stop-color="#805500"/>
      <stop offset=".22" stop-color="#a87f28"/>
      <stop offset=".3" stop-color="#c9a149"/>
      <stop offset=".36" stop-color="#deb65d"/>
      <stop offset=".4" stop-color="#e5be64"/>
      <stop offset=".45" stop-color="#e4bb60"/>
      <stop offset=".68" stop-color="#dfb254"/>
      <stop offset=".74" stop-color="#a27820"/>
      <stop offset=".77" stop-color="#875e08"/>
      <stop offset=".79" stop-color="#8c630d"/>
      <stop offset=".82" stop-color="#9b721a"/>
      <stop offset=".84" stop-color="#b4892f"/>
      <stop offset=".87" stop-color="#d7ab4d"/>
      <stop offset=".87" stop-color="#dfb254"/>
      <stop offset="1" stop-color="#dfb254"/>
    </linearGradient>
    <linearGradient id="linear-gradient-2" x1="753.58" y1="-331.17" x2="2290.6" y2="-309.37" gradientTransform="translate(-135.05 338) scale(.46 -.46)" gradientUnits="userSpaceOnUse">
      <stop offset=".14" stop-color="#805500"/>
      <stop offset=".22" stop-color="#a87f28"/>
      <stop offset=".3" stop-color="#c9a149"/>
      <stop offset=".36" stop-color="#deb65d"/>
      <stop offset=".4" stop-color="#e5be64"/>
      <stop offset=".48" stop-color="#f6d67a"/>
      <stop offset=".54" stop-color="#ffe286"/>
      <stop offset=".61" stop-color="#fee084"/>
      <stop offset=".64" stop-color="#f9d97d"/>
      <stop offset=".66" stop-color="#f1cd70"/>
      <stop offset=".67" stop-color="#e6bc5f"/>
      <stop offset=".68" stop-color="#dfb254"/>
      <stop offset=".74" stop-color="#a27820"/>
      <stop offset=".77" stop-color="#875e08"/>
      <stop offset=".79" stop-color="#8c630d"/>
      <stop offset=".82" stop-color="#9b721a"/>
      <stop offset=".84" stop-color="#b4892f"/>
      <stop offset=".87" stop-color="#d7ab4d"/>
      <stop offset=".87" stop-color="#dfb254"/>
      <stop offset="1" stop-color="#dfb254"/>
    </linearGradient>
    <linearGradient id="linear-gradient-3" x1="485.79" y1="549.68" x2="2232.26" y2="546.17" xlink:href="#linear-gradient"/>
    <linearGradient id="linear-gradient-4" x1="485.79" y1="556.79" x2="2232.26" y2="553.29" xlink:href="#linear-gradient"/>
    <linearGradient id="linear-gradient-5" x1="485.79" y1="557.23" x2="2232.26" y2="553.72" xlink:href="#linear-gradient"/>
    <linearGradient id="linear-gradient-6" x1="485.79" y1="550.98" x2="2232.26" y2="547.47" xlink:href="#linear-gradient"/>
    <linearGradient id="linear-gradient-7" x1="102.95" y1="-1166.7" x2="1937.37" y2="-1170.38" xlink:href="#linear-gradient"/>
  </defs>
  <path id="path2" class="cls-3" d="M218.82,458.96c0,170.78,45.56,281.3,260.94,365.16,215.54-83.69,260.94-194.37,260.94-365.16l2.1-111.16v-173.85h0c-173.53-35.87-352.39-35.87-525.92,0v174.01c.32,0,1.45,49.93,1.94,111Z"/>
  <path id="path16" class="cls-7" d="M232.72,460.41c0,161.73,43.14,266.27,247.05,345.61,204.07-79.33,247.05-183.87,247.05-345.61l2.1-105.18v-164.8h0c-164.16-33.93-333.49-33.93-497.81,0v164.8l1.62,105.18Z"/>
  <path id="path17" class="cls-13" d="M716.95,202.54c-156.24-32.31-317.49-32.31-473.73,0v157.37l1.45,100.5c0,154.46,41.04,254.48,235.09,330.09,194.05-75.78,235.09-175.79,235.09-330.09v-59.46c1.29-13.57,1.94-27.14,1.94-41.04l.16-157.37Z"/>
  <path id="path18" class="cls-5" d="M661.21,192.36c-109.55,43.79-251.57,91.61-417.99,127.16v24.56c188.23-40.55,345.12-96.46,458.54-144.61-13.57-2.59-26.98-5.01-40.55-7.11h0Z"/>
  <path id="path19" class="cls-5" d="M243.22,202.54v102.6c153.49-32.64,286.31-75.78,392.14-116.49-130.39-17.45-262.88-12.93-392.14,13.9h0Z"/>
  <path id="path20" class="cls-5" d="M716.95,276.22c-112.45,49.44-274.67,109.87-472.6,153.49l.48,30.7c0,13.09.32,25.69.97,37.97l471.15-143.32v-78.85Z"/>
  <path id="path21" class="cls-5" d="M715.02,497.41l-439.16,133.3c13.57,27.79,32.48,53,58.17,76.26l364.19-110.68c10.02-30.05,15.03-62.85,16.8-98.88h0Z"/>
  <path id="path22" class="cls-6" d="M715.99,460.41s.97-86.6.97-100.5v-4.85l-471.31,143.15c2.59,49.93,11.15,93.55,30.21,132.49l439.16-133.3c.65-11.96.97-24.4.97-37h0Z"/>
  <path id="path23" class="cls-11" d="M698.37,596.3l-364.19,110.68c34.74,31.18,81.92,58.65,145.74,83.53,130.07-50.73,191.79-112.45,218.45-194.21Z"/>
  <path id="path24" class="cls-11" d="M716.95,202.54h0c-5.01-.97-10.02-2.1-15.19-3.07-113.42,47.99-270.31,104.05-458.54,144.61v15.83l.97,69.8c197.93-43.79,360.15-104.21,472.6-153.49v-73.68h.16Z"/>
  <path id="path25" class="cls-11" d="M635.36,188.65c-105.83,40.88-238.64,83.86-392.14,116.49v14.22c166.42-35.55,308.44-83.21,417.99-127.16-8.72-1.13-17.29-2.42-25.85-3.55Z"/>
  <g id="g36">
    <g id="g26">
      <path id="path26" class="cls-6" d="M535.83,214.01c-.65-3.55-2.26-3.23-3.88-2.75-3.88.97-4.85-.16-4.85-.65.48-3.07,4.04-4.04,4.85-3.88,1.13.16,1.78-.48,1.78-.48,0,0,.16.16.65-1.94.48-1.94-.32-2.26-.97-2.26s-1.29,0-4.04,1.62c-3.23,1.94-5.33,6.46-4.85,9.86.48,3.39,4.85,2.75,7.43,2.1,2.59-.48.81,2.75,0,3.72-1.78,2.26-7.76,5.82-8.89,6.46s-2.1,1.29-2.1,1.29c3.23-.48,5.33-1.78,7.76-2.75,3.07-1.29,7.76-6.79,7.11-10.34h0ZM551.18,266.85c-.81,6.3-4.36,10.34-4.36,10.34,0,0-.65.48-3.39-7.43-2.75-7.76-.32-14.86,0-19.87.32-4.04,1.29-1.78,2.75,1.29,1.13,2.42,2.75,5.49,3.39,6.79,1.13,2.42,2.42,2.59,1.62,8.89ZM522.74,279.61c-4.52-6.46-4.85-11.79-5.33-14.7-.48-2.91,1.94-10.5,2.75-14.06s1.62-.32,1.62-.32c0,0,5.01,10.34,5.66,14.22,1.29,7.59-4.69,14.86-4.69,14.86h0ZM497.05,235.02c4.2-.32,4.69,2.42,4.52,2.91s-.48,3.07-3.72,2.75c-5.17-.65-4.52-5.49-.81-5.66h0ZM575.58,231.46c-3.55-9.37-14.06-23.1-16-25.53-2.1-2.42-2.75,0-2.75,1.29s.16,6.3.32,8.89c.16,2.42,3.07,24.07,3.55,28.44.48,4.36,1.78,8.4,3.88,8.24,2.1-.32-.16-9.69-1.13-13.41-.97-3.55-2.26-17.77-2.26-17.77,0,0,1.13.97,3.39,4.04,5.17,7.11,10.02,19.23,12.28,28.6,2.26,9.53-1.94,25.69-10.18,31.18-8.4,5.49-14.86-2.75-14.86-2.75.16-.81,1.78-3.39,3.39-16.32,1.62-12.93-8.4-28.28-9.53-31.02-1.13-2.91-2.1-1.94-2.42-1.13-.32.81-.65,3.72-3.39,19.39-3.88,21.97,2.91,29.24,2.91,29.24-8.08,9.37-14.86,1.94-15.03,1.78,0,0,.32-.97,2.75-12.12,2.75-12.93-3.39-23.75-5.01-28.44s-2.75-8.4-3.72-8.4c-1.78.16-1.62,4.85-2.75,9.37-1.13,4.52-3.23,10.02-4.85,20.84-1.62,10.83,4.2,19.23,4.2,19.23-2.75,3.88-10.83,7.76-15.35,7.27-22.3-2.75-16.97-26.17-16.97-26.17,5.17-2.91,14.22-14.38,14.22-14.38,9.21-.97,21.81-16.64,13.25-35.87-8.56-19.23-23.75-18.74-28.11-16.64-14.7,6.95-5.01,31.35-3.07,34.25,1.78,2.91,1.45-2.26.97-3.88-2.91-9.21-1.94-15.51-.16-17.13,8.89-8.4,22.94,3.39,24.56,5.33,1.62,1.94,5.17,7.11,3.72,11.63-1.45,4.52-5.82,7.59-5.82,7.59,0-9.05-4.52-12.76-8.24-12.12-3.72.65-5.98,5.66-6.14,13.57-.16,7.92,2.42,10.02,2.42,10.02-12.12,13.09-25.21,16.48-38.13,14.22-23.91-4.04-23.1-35.38-23.1-35.38-.81-15.19-2.26-23.59-3.07-25.69s-1.78-2.1-2.26-1.29c-.65.81-2.42,4.69-3.23,6.79-.65,2.1-.48,2.91-.48,2.91,1.78,3.72,1.78,9.86,2.91,14.7.97,4.69-.81,9.21-2.42,11.96-1.62,2.91-8.24,9.86-9.86,12.28s-3.39,5.01-4.2,13.09c-.81,8.24,4.85,10.18,9.86,11.15,5.17,1.13,5.49,3.72,6.14,6.14s-6.62,13.73-20.52,13.09c-14.86-.81-18.58-9.86-20.2-15.19-4.36-14.86,3.39-27.31,4.69-29.73,1.45-2.42,10.83-22.14,11.63-23.91.65-1.78,1.94-5.33,1.94-6.14s1.13-9.21,1.13-10.34c.16-1.13-.32-1.45-.65-.48-.48.81-2.26,7.43-2.91,11.79-.81,4.36-7.11,16.32-9.05,19.87-3.72,6.62-12.76,25.37-12.6,34.74.32,28.6,20.68,30.86,27.47,30.7,16-.16,23.43-17.13,24.07-26.98.81-9.86-2.59-13.25-9.86-14.86s-6.79-4.85-6.79-4.85c.97-1.13,6.14-7.76,7.11-9.21.97-1.45,4.85-8.4,5.49-9.53.65-1.13.97-1.13.97-1.13,1.94,33.12,25.53,38.62,37.97,37.32,10.5-.97,18.26-6.3,18.26-6.3-3.07,16,6.79,26.34,12.44,29.73,18.26,10.66,27.79-6.14,27.79-6.14,16.32,15.51,23.75-1.78,23.75-1.78,6.14,6.3,12.6,8.4,15.67,8.08,11.47-1.13,15.83-20.68,16.48-26.17,2.75-21-2.1-33.93-4.52-40.55h0Z"/>
    </g>
    <g id="g35">
      <g id="g34">
        <path id="path27" class="cls-6" d="M413.2,319.52h5.01l4.2,22.14h-4.2l-.81-4.85h-3.55l-.81,4.85h-4.2l4.36-22.14ZM417.07,334.06l-1.29-8.89-1.45,8.89h2.75Z"/>
        <path id="path28" class="cls-6" d="M427.25,319.52h4.52v19.07h5.17v3.07h-9.69v-22.14Z"/>
        <path id="path29" class="cls-6" d="M454.08,319.52h5.01l4.2,22.14h-4.2l-.81-4.85h-3.55l-.81,4.85h-4.2l4.36-22.14ZM457.95,334.06l-1.29-8.89-1.29,8.89h2.59Z"/>
        <path id="path30" class="cls-6" d="M468.13,319.52h4.52v9.05h3.88v-9.05h4.52v22.14h-4.52v-9.86h-3.88v9.86h-4.52v-22.14Z"/>
        <path id="path31" class="cls-6" d="M486.87,319.52h4.52v19.07h5.17v3.07h-9.69v-22.14Z"/>
        <path id="path32" class="cls-6" d="M502.39,332.93l-4.36-13.41h4.2l2.42,7.76,2.26-7.76h4.2l-4.2,13.41v8.72h-4.36v-8.72h-.16Z"/>
        <path id="path33" class="cls-6" d="M524.68,319.52h9.37v3.07h-4.85v5.98h4.2v3.07h-4.2v10.02h-4.52v-22.14Z"/>
        <path id="path34" class="cls-6" d="M540.03,340.2c-.97-1.29-1.45-3.07-1.45-5.49v-7.92c0-2.42.48-4.36,1.45-5.49.97-1.29,2.59-1.94,5.01-1.94,2.26,0,3.88.48,4.85,1.62s1.45,2.75,1.45,4.69v1.94h-4.52v-2.1c0-.65,0-1.13-.16-1.62,0-.32-.16-.81-.48-.97-.32-.32-.65-.32-1.29-.32-.81,0-1.29.32-1.62.81-.16.48-.32,1.29-.32,2.26v10.02c0,.97.16,1.78.48,2.26s.81.81,1.45.81c.81,0,1.29-.32,1.45-.81.16-.48.32-1.29.32-2.26v-2.1h4.36v1.78c0,2.1-.48,3.72-1.45,4.85-.97,1.13-2.59,1.78-4.85,1.78-2.1,0-3.72-.65-4.69-1.78h0Z"/>
      </g>
    </g>
  </g>
  <g id="g52">
    <g id="g51">
      <path id="path36" class="cls-6" d="M349.21,691.14c-.97-1.13-1.29-2.91-1.29-5.01v-7.27c0-2.26.48-3.88,1.29-5.01.97-1.13,2.42-1.78,4.52-1.78s3.55.48,4.36,1.45c.81.97,1.29,2.42,1.29,4.36v1.78h-4.04v-1.94c0-.65,0-1.13-.16-1.45,0-.32-.16-.65-.48-.97-.32-.16-.65-.32-1.13-.32-.81,0-1.29.32-1.45.81s-.32,1.13-.32,2.1v9.21c0,.97.16,1.62.32,2.1.32.48.65.65,1.45.65.65,0,1.13-.16,1.29-.65.16-.48.32-1.13.32-2.1v-1.94h4.04v1.62c0,1.94-.48,3.39-1.29,4.52-.81,1.13-2.26,1.62-4.36,1.62-1.94,0-3.39-.65-4.36-1.78h0Z"/>
      <path id="path37" class="cls-6" d="M364.24,672.24h4.04v17.45h4.85v2.75h-8.89v-20.2Z"/>
      <path id="path38" class="cls-6" d="M379.27,692.11c-.81-.48-1.45-1.29-1.78-2.26-.32-.97-.48-2.26-.48-3.72v-13.9h4.04v14.54c0,.97.16,1.78.32,2.26.16.48.65.81,1.45.81s1.29-.32,1.45-.81.32-1.29.32-2.26v-14.54h4.04v13.9c0,1.45-.16,2.75-.48,3.72-.32.97-.97,1.78-1.78,2.26-.81.48-2.1.81-3.55.81s-2.59-.32-3.55-.81Z"/>
      <path id="path39" class="cls-6" d="M393.81,672.24h5.17c1.94,0,3.55.32,4.52,1.13,1.13.81,1.62,2.1,1.62,4.2,0,1.13-.32,2.1-.81,2.91-.48.65-1.29,1.13-2.26,1.29,1.13.16,2.1.65,2.75,1.45.65.81.97,1.94.97,3.39,0,4.04-1.94,5.98-5.98,5.98h-6.14v-20.36h.16ZM398.98,680.48c.97,0,1.62-.16,2.1-.65.32-.48.48-1.13.48-2.1s-.16-1.62-.65-1.94-1.13-.65-2.26-.65h-.81v5.33h1.13ZM399.14,689.69c.97,0,1.78-.32,2.1-.81.48-.48.65-1.29.65-2.42s-.16-1.94-.65-2.59c-.48-.48-1.13-.81-2.1-.81h-1.13v6.46h1.13v.16Z"/>
      <path id="path40" class="cls-6" d="M420.14,691.14c-.97-1.13-1.45-2.75-1.45-5.01v-7.59c0-2.26.48-3.88,1.45-5.01.97-1.13,2.42-1.62,4.69-1.62,2.1,0,3.72.48,4.52,1.62.97,1.13,1.45,2.75,1.45,5.01v7.59c0,2.1-.48,3.88-1.45,5.01-.97,1.13-2.42,1.62-4.52,1.62-2.26.16-3.72-.48-4.69-1.62ZM426.28,689.2c.16-.48.32-1.13.32-1.94v-9.53c0-.81-.16-1.45-.32-1.94-.32-.48-.65-.65-1.45-.65-.65,0-1.13.16-1.45.65-.32.48-.32,1.13-.32,1.94v9.53c0,.81.16,1.45.32,1.94s.65.65,1.45.65c.65.16,1.13-.16,1.45-.65Z"/>
      <path id="path41" class="cls-6" d="M435.82,672.24h8.56v2.91h-4.52v5.49h3.72v2.91h-3.72v9.21h-4.04v-20.52Z"/>
      <path id="path42" class="cls-6" d="M459.25,675.31h-3.07v-3.07h10.34v3.07h-3.07v17.29h-4.2v-17.29Z"/>
      <path id="path43" class="cls-6" d="M470.56,672.24h4.2v8.4h3.55v-8.4h4.2v20.36h-4.2v-9.05h-3.55v9.05h-4.2v-20.36Z"/>
      <path id="path44" class="cls-6" d="M487.84,672.24h8.89v2.91h-4.85v5.33h3.72v2.91h-3.72v6.3h4.85v2.75h-8.89v-20.2Z"/>
      <path id="path45" class="cls-6" d="M510.63,691.14c-.97-1.13-1.29-2.91-1.29-5.01v-7.27c0-2.26.48-3.88,1.29-5.01.97-1.13,2.42-1.78,4.52-1.78s3.55.48,4.36,1.45c.81.97,1.29,2.42,1.29,4.36v1.78h-4.04v-1.94c0-.65,0-1.13-.16-1.45,0-.32-.16-.65-.48-.97-.32-.16-.65-.32-1.13-.32-.81,0-1.29.32-1.45.81-.16.48-.32,1.13-.32,2.1v9.21c0,.97.16,1.62.32,2.1.32.48.65.65,1.45.65.65,0,1.13-.16,1.29-.65.16-.48.32-1.13.32-2.1v-1.94h4.04v1.62c0,1.94-.48,3.39-1.29,4.52-.81,1.13-2.26,1.62-4.36,1.62-1.94,0-3.39-.65-4.36-1.78h0Z"/>
      <path id="path46" class="cls-6" d="M525.81,672.24h8.89v2.91h-4.69v5.33h3.72v2.91h-3.72v6.3h4.85v2.75h-9.05v-20.2Z"/>
      <path id="path47" class="cls-6" d="M539.06,672.24h2.91l4.52,10.5v-10.5h3.39v20.36h-2.75l-4.52-11.31v11.31h-3.55v-20.36Z"/>
      <path id="path48" class="cls-6" d="M557.16,675.31h-3.07v-3.07h10.34v3.07h-3.07v17.29h-4.2v-17.29Z"/>
      <path id="path49" class="cls-6" d="M570.57,692.11c-.81-.48-1.45-1.29-1.78-2.26-.32-.97-.48-2.26-.48-3.72v-13.9h4.04v14.54c0,.97.16,1.78.32,2.26.16.48.65.81,1.45.81s1.29-.32,1.45-.81c.16-.48.32-1.29.32-2.26v-14.54h4.04v13.9c0,1.45-.16,2.75-.48,3.72-.32.97-.97,1.78-1.78,2.26-.81.48-2.1.81-3.55.81s-2.75-.32-3.55-.81h0Z"/>
      <path id="path50" class="cls-6" d="M585.11,672.24h5.33c2.26,0,3.88.32,5.01,1.13,1.13.81,1.62,2.26,1.62,4.2,0,1.29-.16,2.42-.48,3.23s-.97,1.45-1.94,1.78l2.75,9.86h-4.2l-2.26-9.21h-1.45v9.21h-4.04v-20.2h-.32ZM590.6,680.96c.97,0,1.62-.16,2.1-.65.32-.48.65-1.29.65-2.26s-.16-1.78-.48-2.26c-.32-.48-.97-.65-1.94-.65h-1.45v5.82h1.13Z"/>
      <path id="path51" class="cls-6" d="M604.34,684.51l-4.04-12.28h3.88l2.26,7.11,1.94-7.11h3.72l-3.88,12.28v8.08h-4.04v-8.08h.16Z"/>
    </g>
  </g>
  <g id="g56">
    <g id="g55">
      <path id="path52" class="cls-6" d="M439.37,713.76c-.32.16-.65.32-1.29.48s-1.13.32-1.45.48c-1.29.48-2.1.65-2.42.81v-5.01c.97-.48,2.26-.97,3.55-1.78,1.45-.81,2.42-1.45,3.07-2.1h5.33v35.38h-6.79v-28.28Z"/>
      <path id="path53" class="cls-6" d="M458.6,740.42c-1.45-1.45-2.1-3.72-2.1-6.79v-.48h6.3c0,1.62.16,2.75.48,3.39s.97.97,2.1.97c.81,0,1.29-.16,1.62-.65.32-.48.65-1.13.81-2.1s.16-2.42.16-4.36v-3.55c-.32.65-.97,1.13-1.78,1.45-.81.32-1.78.48-2.91.48-2.59,0-4.52-.97-5.66-2.91-1.13-1.94-1.78-4.52-1.78-7.59,0-7.92,3.23-11.96,9.53-11.96,3.23,0,5.66.97,7.11,3.07,1.62,1.94,2.26,4.85,2.26,8.24v12.93c0,3.88-.65,6.79-2.1,8.89-1.45,2.1-3.88,3.23-7.43,3.23-3.07,0-5.33-.81-6.62-2.26h0ZM468.13,722v-5.66c0-1.62-.16-2.75-.65-3.72-.32-.97-1.13-1.29-2.1-1.29s-1.78.48-2.1,1.45c-.32.97-.48,2.59-.48,4.69,0,1.45,0,2.75.16,3.39.16.81.32,1.45.65,1.94.32.48.97.81,1.78.81,1.13,0,2.1-.48,2.75-1.62h0Z"/>
      <path id="path54" class="cls-6" d="M486.07,740.1c-1.62-1.78-2.42-4.36-2.42-7.43v-15.83c0-3.23.81-5.82,2.42-7.59,1.62-1.78,3.88-2.75,7.11-2.75s5.49.97,7.11,2.75c1.62,1.78,2.42,4.36,2.42,7.59v15.83c0,3.07-.81,5.49-2.42,7.43-1.62,1.94-4.04,2.75-6.95,2.75-3.23,0-5.66-.97-7.27-2.75h0ZM495.76,732.5v-15.67c0-1.29-.16-2.42-.48-3.23-.32-.81-.97-1.29-2.1-1.29s-1.78.48-2.1,1.29c-.32.81-.48,1.94-.48,3.23v15.67c0,2.91.81,4.36,2.59,4.36s2.59-1.45,2.59-4.36h0Z"/>
      <path id="path55" class="cls-6" d="M519.35,711.98h-9.69v-5.17h16.16v4.36l-7.43,31.02h-6.62l7.59-30.21Z"/>
    </g>
  </g>
  <g id="g76">
    <path id="path75" class="cls-8" d="M379.91,529.73c7.27,7.27,24.56,13.41,30.86,15.19,2.1.65,3.55,2.1,4.2,4.04,8.72-1.13,17.77-2.91,25.85-5.82-5.66-.32-11.96-.97-18.58-2.1-13.57-2.1-28.76-6.14-42.33-11.31M483,657.53h-1.13c-2.75-.16-5.17-1.94-5.82-4.69-.48-1.78-.16-3.55.81-5.01-.32-.16-.81-.16-1.29-.16-1.45,0-3.23.65-5.17,1.78-2.59,1.62-5.98.97-7.92-1.29-.48-.65-3.07-3.88-2.75-8.24.16-2.1.97-3.88,2.26-5.49-7.92-5.82-14.06-16.97-8.4-38.94-9.69,6.3-25.21,14.7-40.88,18.42-.65.16-1.45.16-2.1.16-.97-.16-23.59-2.75-39.59-25.21-1.13-1.62-1.45-3.72-.81-5.66l.48-.97h0c-2.42-.16-4.52-1.78-5.33-4.04-.16-.48-3.88-10.66-2.1-22.94.48-2.75,2.59-4.85,5.33-5.33-1.29-1.62-2.1-3.23-2.59-4.52-2.42-7.92,3.23-15.19,3.88-16,.97-1.13,2.1-1.94,3.55-2.1-13.9-5.98-25.69-13.09-31.18-20.68-1.45-1.94-1.62-4.52-.48-6.62.16-.32.32-.48.48-.81-10.34-3.88-20.36-10.66-26.01-22.78-.97-2.26-.65-4.69.81-6.62.65-.65,1.29-1.29,2.1-1.62-7.76-5.98-13.9-14.38-16.16-26.17-.16-1.13-.16-2.26.32-3.23l-1.13-16.8c-2.75-6.46-4.04-13.73-3.88-21.33,0-1.78.81-3.39,2.1-4.52l-.32-4.52,5.17-25.85c.81-4.36,2.26-8.56,4.52-12.6.97-1.94,2.91-3.07,5.01-3.23,2.1-.16,4.2.81,5.49,2.59,0,.16,2.42,3.23,5.98,7.92-1.29-4.69-1.78-9.37-1.62-14.22.81-13.73,11.63-26.34,12.12-26.82,1.45-1.62,3.55-2.42,5.66-2.1s3.88,1.78,4.85,3.72c.16.32,8.56,20.36,19.55,39.42-.32-11.47,2.42-24.4,13.9-33.45,1.78-1.45,4.04-1.78,6.14-.97s3.55,2.59,3.88,4.85c0,.32,4.52,25.69,18.1,55.26,7.76,16.97,24.88,48.63,53.16,71.58,10.18,8.4,19.55,14.06,27.79,18.9l.16.16c-2.26-11.47-4.69-32.31,3.39-48.63.97-1.94,2.91-3.23,5.17-3.39,1.62-.16,3.23.48,4.52,1.45.81-10.18,3.72-23.91,13.09-36.84,1.45-2.1,4.2-3.07,6.79-2.42.81.16,1.62.65,2.26,1.13,2.75-10.5,8.72-21.65,21.33-29.41,2.26-1.29,5.01-1.29,6.95.32,1.29.97,2.1,2.42,2.42,3.88,5.98-10.5,15.35-20.04,30.05-24.56,2.42-.81,5.01,0,6.62,1.94.97,1.13,1.45,2.42,1.45,3.88,9.86-9.37,21.65-15.83,35.22-18.9,2.59-.65,5.33.48,6.62,2.91,1.45,2.26,1.13,5.17-.48,7.27,0,0-.32.32-.81,1.13,12.12-9.53,26.01-16.32,41.36-16.32,2.75,0,5.66.16,8.4.65,2.42.32,4.36,2.1,5.01,4.52.65,2.26,0,4.85-1.78,6.46-.16.16-12.12,10.83-24.4,22.94-2.91,2.91-5.82,5.98-8.72,8.89,1.62-.16,3.23-.32,4.85-.32,4.52,0,8.89.81,13.09,2.26,2.26.81,3.88,2.91,4.2,5.33.16,2.42-.97,4.85-3.07,5.98-.32.16-34.25,19.87-66.57,57.04-6.14,7.11-14.7,21-22.94,34.42-9.86,16-16.97,27.31-22.62,33.77h0c16,1.94,24.72,5.01,28.76,9.86,1.45.48,3.07,1.13,4.52,2.42,3.39,2.75,5.33,6.62,5.01,10.5-.32,4.85-3.72,9.37-9.86,13.09-1.78,1.13-4.04,1.29-5.98.32-1.29-.65-2.26-1.62-2.75-2.91-5.82,2.59-21,9.53-35.55,19.39-11.79,8.08-27.47,21.33-39.91,36.03.32.81.48,1.62.48,2.59s.48,4.85,2.59,5.66c6.95,3.07,19.87,9.05,15.67,19.23-2.42,5.82-7.76,7.92-11.96,7.92h-.97c-2.26-.32-4.2-1.78-5.01-3.72-.16-.32-.32-.81-.32-1.13-.81,1.62-2.26,2.59-4.04,3.07-.32.16-1.62.32-3.23.32-4.85,0-8.56-2.1-10.83-5.82-.97,2.75-1.78,5.33-2.26,7.92,5.82,3.23,14.86,9.69,14.54,18.42-.97,7.43-7.43,12.28-17.29,12.28h0Z"/>
    <path id="path76" class="cls-2" d="M499.8,618.11s-3.39-8.24,5.66-5.66c9.53,2.59,5.98,7.43,5.98,7.43,0,0,4.69.48,6.62-4.04,1.94-4.52-6.3-8.24-12.44-11.15-6.3-2.75-6.3-11.47-6.3-11.47-4.85,2.59-3.39,13.25-3.39,13.25,0,0-4.52,3.88-4.2,6.14.97,7.11,8.08,5.49,8.08,5.49M418.53,465.91c-36.52,5.82-37.32-17.13-37.32-17.13,12.28,11.79,37.32,17.13,37.32,17.13ZM416.43,454.43c-45.89-7.76-35.06-29.41-35.06-29.41,9.53,17.45,35.06,29.41,35.06,29.41ZM416.11,440.86c-48.15-22.14-30.54-44.27-30.54-44.27,9.37,27.31,30.54,44.27,30.54,44.27ZM593.67,398.37c9.53-34.58,36.52-66.89,36.52-66.89-51.86,11.79-58.17,71.25-58.17,71.25-2.75-22.94,15.35-58.17,15.35-58.17-37.97,11.79-36.35,63.34-36.35,63.34-7.11-24.56-1.78-43.62-1.78-43.62-26.66,16.48-19.39,51.7-19.39,51.7-8.08-7.76-9.05-22.78-9.05-22.78-16,22.3-11.47,47.34-11.47,47.34-5.82-2.42-10.66-9.53-10.66-9.53-10.5,21.17-.97,52.35-.97,52.35,24.24,17.77,12.28,33.93,12.28,33.93,5.66-27.47-19.07-27.95-52.19-54.77-25.04-20.36-43.3-48.63-54.93-73.84-14.06-30.7-18.58-56.87-18.58-56.87-21.33,16.97-6.46,51.54-6.46,51.54l-1.78,2.26c-18.1-21.81-34.9-62.21-34.9-62.21,0,0-9.86,11.31-10.5,23.1-1.78,28.11,33.28,57.84,33.28,57.84-.32,1.13-.81,4.69-.81,4.69-18.74-12.93-48.15-53-48.15-53-21.65,40.23,46.05,74.49,46.05,74.49l.32,4.36c-25.85-8.08-57.04-33.93-57.04-33.93-1.29,45.56,58,53.64,58,53.64l.32,3.88c-20.2-2.26-53.8-17.61-53.8-17.61,6.62,35.55,58,35.71,58,35.71l.65,2.91c-10.34,3.07-46.05-5.82-46.05-5.82,12.6,27.47,53.8,23.75,53.8,23.75l1.62,2.1c-7.59,4.04-30.05,3.23-30.05,3.23,9.86,13.25,44.76,27.31,76.1,32.15,22.46,3.39,40.39,2.26,40.39,2.26-27.31,25.37-94.04,18.9-94.04,18.9-1.62,10.83,1.78,19.87,1.78,19.87,10.34.81,37.97-2.75,37.97-2.75-5.98,3.23-32.8,11.96-32.8,11.96,14.54,20.52,35.06,22.62,35.06,22.62,21.17-5.01,42.49-19.55,46.53-23.1,4.2-3.55,6.46-1.45,6.46-1.45-16.48,40.39,2.1,46.53,4.85,48.15s3.23,4.2,3.23,4.2c0,0-1.45-.65-4.85,2.1-3.39,2.75-.32,6.46-.32,6.46,9.53-5.82,15.35-.81,16.97,1.94,1.62,2.75-1.94,5.17-1.94,5.17,0,0,10.83.65,11.15-6.3.32-8.08-15.03-14.54-15.03-14.54,1.78-30.21,41.36-66.08,63.18-80.79,17.77-12.12,36.68-19.87,38.62-21,5.17-2.75,6.14,3.88,6.14,3.88,9.53-5.66,7.27-10.83,4.2-13.25-2.26-1.78-4.69-1.78-4.69-1.78-1.29-4.52-11.15-7.43-25.53-9.21-14.38-1.78-37.49-6.79-37.49-6.79,7.27,1.78,28.92.48,28.92.48,9.69-4.36,35.38-54.93,50.09-72.06,33.45-38.45,68.18-58.49,68.18-58.49-21.65-7.76-42.17,10.66-42.17,10.66,0,0,15.67-16.97,30.7-31.99,12.44-12.44,24.56-23.27,24.56-23.27-50.09-8.24-89.35,71.58-89.35,71.58h0ZM566.69,514.7c2.26.16,5.33.48,7.43,1.13.48.16.81.32,1.29.48.32.16,3.07,1.29,2.91,1.78-.16.32-.65.16-.81,0-1.29-.48-4.04,1.45-5.01,2.26h-.16c-.16,0-.16-.16-.16-.16-.81-2.26-2.91-4.36-5.33-5.01-.16,0-.16-.16-.16-.32-.16,0-.16-.16,0-.16h0ZM538.58,531.02c-3.39,1.29-7.59,5.17-10.02,7.92q-.16.16-.32,0c-.16,0-.16-.16-.16-.32.81-2.1.81-4.36-.48-6.3-.48-.81-1.45-1.62-2.26-2.1-.16,0-.16-.16-.16-.32s.16-.16.32-.16c3.72,1.78,8.72,2.26,12.6.81.16,0,.32,0,.32.16.48.16.32.32.16.32ZM525.49,515.83c-.32.32-.81.48-1.13.65-.16,0-.32,0-.32-.16v-.32c.32-.32.65-.48,1.13-.65,2.91-2.42,1.45-6.46,0-9.21,0-.16,0-.32.16-.32s.32,0,.32.16c2.26,3.39,7.11,5.33,10.99,5.49.16,0,.16.16.16.16q0,.16-.16.32c-3.39.65-8.08,1.94-11.15,3.88h0ZM524.36,518.09c3.07,2.59,7.59,4.2,11.63,3.23.16,0,.32,0,.32.16s0,.32-.16.32c-2.59.97-8.08,3.23-9.86,5.17q-.16.16-.32,0c-.16,0-.16-.16,0-.32,1.78-3.07.65-6.14-1.94-8.24h0l-.16-.16c-.16-.16-.16-.32,0-.32,0-.16.16-.16.48.16h0ZM409,550.89s-24.88-7.11-34.42-17.61c0,0-10.02,12.28,6.14,16.64,16,4.36,28.28.97,28.28.97h0Z"/>
  </g>
  <g id="g135">
    <path id="path90" class="cls-10" d="M347.92,94.61c8.08-5.82,16.16-11.79,24.24-17.61.16-.16.48-.32.65-.48v-.16c-.16,0-.48.16-.65.16l-30.86.16-9.86-30.38-10.18,30.21-31.02-.16q-.16,0-.32-.16v.16c.16.16.32.32.65.48,8.08,5.98,16.32,11.79,24.4,17.77.48.32.48.65.32,1.13-2.91,9.05-5.82,18.1-8.89,27.14-.32.81-.48,1.45-.81,2.42.32-.16.48-.32.65-.32,8.24-5.98,16.48-11.96,24.72-17.93.32-.32.48-.48.48-.97v-4.36h0v4.52c0,.48.16.65.48.97,8.24,5.98,16.48,11.96,24.72,17.93.16.16.32.16.48.32-.16-.32-.16-.65-.32-.81-3.07-9.53-6.14-19.23-9.37-28.76-.16-.65,0-.97.48-1.29h0Z"/>
    <path id="path105" class="cls-12" d="M446.97,91.54c8.08-5.82,16.16-11.79,24.24-17.61.16-.16.48-.32.65-.48v-.16c-.16,0-.48.16-.65.16l-30.86.16-9.86-30.38-10.18,30.21-31.02-.16q-.16,0-.32-.16v.16c.16.16.32.32.65.48,8.08,5.98,16.32,11.79,24.4,17.77.48.32.48.65.32,1.13-2.91,9.05-5.82,18.1-8.89,27.14-.32.81-.48,1.45-.81,2.42.32-.16.48-.32.65-.32,8.24-5.98,16.48-11.96,24.72-17.93.32-.32.48-.48.48-.97v-4.36h0v4.52c0,.48.16.65.48.97,8.24,5.98,16.48,11.96,24.72,17.93.16.16.32.16.48.32-.16-.32-.16-.65-.32-.81-3.07-9.53-6.14-19.23-9.37-28.76,0-.65,0-.97.48-1.29h0Z"/>
    <path id="path120" class="cls-4" d="M546.17,91.54c8.08-5.82,16.16-11.79,24.24-17.61.16-.16.48-.32.65-.48v-.16c-.16,0-.48.16-.65.16l-30.86.16-9.86-30.38-10.18,30.21-31.02-.16q-.16,0-.32-.16v.16c.16.16.32.32.65.48,8.08,5.98,16.32,11.79,24.4,17.77.48.32.48.65.32,1.13-2.91,9.05-5.82,18.1-8.89,27.14-.32.81-.48,1.45-.81,2.42.32-.16.48-.32.65-.32,8.24-5.98,16.48-11.96,24.72-17.93.32-.32.48-.48.48-.97v-4.36h0v4.52c0,.48.16.65.48.97,8.24,5.98,16.48,11.96,24.72,17.93.16.16.32.16.48.32-.16-.32-.16-.65-.32-.81-3.07-9.53-6.14-19.23-9.37-28.76,0-.65,0-.97.48-1.29Z"/>
    <path id="path135" class="cls-1" d="M645.38,94.61c8.08-5.82,16.16-11.79,24.24-17.61.16-.16.48-.32.65-.48v-.16c-.16,0-.48.16-.65.16l-30.86.16-9.86-30.38-10.18,30.21-31.02-.16q-.16,0-.32-.16v.16c.16.16.32.32.65.48,8.08,5.98,16.32,11.79,24.4,17.77.48.32.48.65.32,1.13-2.91,9.05-5.82,18.1-8.89,27.14-.32.81-.48,1.45-.81,2.42.32-.16.48-.32.65-.32,8.24-5.98,16.48-11.96,24.72-17.93.32-.32.48-.48.48-.97v-4.36h0v4.52c0,.48.16.65.48.97,8.24,5.98,16.48,11.96,24.72,17.93.16.16.32.16.48.32-.16-.32-.16-.65-.32-.81-3.07-9.53-6.14-19.23-9.37-28.76-.16-.65,0-.97.48-1.29Z"/>
  </g>
  <path id="path150" class="cls-9" d="M497.38,884.7c8.56-6.14,16.97-12.28,25.53-18.58.32-.16.48-.32.65-.48v-.16c-.16,0-.48.16-.65.16l-32.48.16-10.34-31.99-10.66,31.83-32.64-.16c-.16,0-.32,0-.32-.16v.16c.16.16.48.32.65.48,8.56,6.14,17.13,12.44,25.69,18.58.48.32.65.65.32,1.29-3.07,9.53-6.14,19.07-9.21,28.44-.32.81-.48,1.62-.81,2.59.32-.16.48-.32.65-.48,8.56-6.3,17.29-12.6,25.85-18.9.32-.32.48-.65.48-.97v-4.69h0v4.69c0,.48.16.81.48.97,8.72,6.3,17.29,12.6,26.01,18.9.16.16.32.16.48.32-.16-.32-.16-.65-.32-.81-3.23-10.02-6.46-20.04-9.86-30.21,0-.16,0-.48.48-.97h0Z"/>
</svg>